<svg xmlns="http://www.w3.org/2000/svg" width="118" height="24" viewBox="0 0 118 24" fill="none">
  <mask id="mask0_11_105554" style="mask-type:luminance" maskUnits="userSpaceOnUse" x="0" y="0" width="118" height="24">
    <path d="M117.333 0H0V24H117.333V0Z" fill="white"/>
  </mask>
  <g mask="url(#mask0_11_105554)">
    <path fill-rule="evenodd" clip-rule="evenodd" d="M12.4405 0.119751C19.1871 0.119751 24.7187 5.47019 24.7187 12.0401C24.7187 18.6254 19.1871 23.985 12.4405 23.985C5.67667 23.985 0.1745 18.6254 0.1745 12.0401C0.1745 5.47019 5.67667 0.119751 12.4405 0.119751ZM10.744 22.3627L15.9799 13.5269L12.4405 13.5283L14.1982 10.5602H22.5129L20.7527 13.5357L17.7444 13.5269L12.4405 22.4981C18.3493 22.4981 23.1904 17.7916 23.1904 12.0401C23.1904 6.31222 18.3492 1.61233 12.4405 1.61233C12.0118 1.61233 11.5772 1.6367 11.1737 1.6895L5.894 10.5602H12.4405L10.6677 13.5269H2.36565L9.13859 2.12496C4.82888 3.48504 1.70109 7.4264 1.70109 12.0401C1.70109 17.2294 5.62591 21.5641 10.744 22.3627Z" fill="#1F1A17"/>
    <path fill-rule="evenodd" clip-rule="evenodd" d="M29.2261 17.8376H36.2879L36.7058 15.9634H32.0867L34.2786 5.9353H31.8228L29.2261 17.8376Z" fill="#1F1A17"/>
    <path fill-rule="evenodd" clip-rule="evenodd" d="M44.3612 8.44338C44.3612 9.58426 43.1326 10.0792 42.2379 10.3195C41.92 9.89151 41.5885 9.33012 41.5885 8.81819C41.5885 7.9148 42.2562 7.40235 43.1326 7.40235C43.7277 7.40235 44.3612 7.63985 44.3612 8.44338ZM43.3945 15.6727C42.8504 16.0659 42.0622 16.2686 41.3279 16.2686C40.167 16.2686 39.1878 15.7946 39.1878 14.5461C39.1878 13.3365 40.204 12.8438 41.2203 12.468L43.3945 15.6727ZM44.8685 17.8376H47.5004L46.0773 15.8282C47.2873 14.6351 47.9727 13.0118 48.1849 11.3753H46.042C46.007 12.4162 45.5697 13.3923 44.9722 14.2414L43.2029 11.7682C44.8338 11.1885 46.3938 10.3367 46.3938 8.44338C46.3938 6.5659 44.4656 5.73132 43.0085 5.73132C41.1493 5.73132 39.3466 6.70087 39.3466 8.74844C39.3466 9.80762 39.7128 10.3195 40.204 10.9694C38.4159 11.4948 36.8349 12.6889 36.8349 14.6657C36.8349 17.0722 38.9395 18.0446 41.0967 18.0446C42.2379 18.0446 43.6408 17.7034 44.4306 17.1552L44.8685 17.8376Z" fill="#1F1A17"/>
    <path fill-rule="evenodd" clip-rule="evenodd" d="M47.8547 7.81221H51.1287L48.9024 17.8375H51.4632L53.6897 7.81221H56.7796L57.1832 5.9353H48.2743L47.8547 7.81221Z" fill="#1F1A17"/>
    <path d="M62.3609 5.9386H69.1183L68.6921 7.81321H64.4148L63.7646 10.7471H67.8535L67.4681 12.6224H63.3636L62.2398 17.8411H59.7839L62.3609 5.9386Z" fill="#1F1A17"/>
    <path d="M70.8149 5.27136H73.1675L72.6756 7.45489H70.3252L70.8149 5.27136ZM69.9565 9.05794H72.3085L70.3774 17.8416H68.0275L69.9565 9.05794Z" fill="#1F1A17"/>
    <path d="M73.8365 10.3213C73.941 9.7911 74.0298 9.33046 74.0653 9.05821H76.3597L76.2058 9.90954H76.2392C76.8877 9.33046 77.7812 8.85437 78.8001 8.85437C80.5719 8.85437 81.7474 9.92795 81.7474 11.6694C81.7474 12.3337 81.5703 13.0338 81.4471 13.5777L80.5009 17.8417H78.151L79.0283 13.7004C79.1515 13.0989 79.2936 12.5015 79.2936 11.8554C79.2936 11.1225 78.764 10.6257 78.0105 10.6257C76.3802 10.6257 75.7833 12.1119 75.4857 13.4257L74.5217 17.8417H72.1686L73.8365 10.3213Z" fill="#1F1A17"/>
    <path d="M85.5915 16.3765C87.3445 16.3765 87.8897 15.1979 88.2568 13.7812H87.4312C86.2917 13.7812 84.3983 13.9697 84.3983 15.4537C84.3983 16.0674 84.9952 16.3765 85.5915 16.3765ZM87.8897 16.4952H87.8553C87.0463 17.4838 86.239 18.0465 84.9403 18.0465C83.3105 18.0465 82.1533 17.1586 82.1533 15.5384C82.1533 12.6396 85.486 12.4196 87.696 12.4196H88.5195C88.591 12.1777 88.5911 11.9229 88.5911 11.6692C88.5911 10.7821 87.6072 10.5229 86.7837 10.5229C85.7471 10.5229 84.7486 10.7821 83.8181 11.2059L84.1523 9.38216C85.1512 9.04392 86.169 8.85437 87.2213 8.85437C89.0297 8.85437 90.731 9.50331 90.731 11.5662C90.731 12.7416 89.8365 16.1855 89.6266 17.8417H87.6432L87.8897 16.4952Z" fill="#1F1A17"/>
    <path d="M92.8391 10.3213C92.9424 9.7911 93.0317 9.33046 93.0651 9.05821H95.3623L95.204 9.90954H95.2401C95.8886 9.33046 96.7832 8.85437 97.7999 8.85437C99.5712 8.85437 100.749 9.92795 100.749 11.6694C100.749 12.3337 100.574 13.0338 100.45 13.5777L99.5034 17.8417H97.1529L98.0286 13.7004C98.1519 13.0989 98.2934 12.5015 98.2934 11.8554C98.2934 11.1225 97.7649 10.6257 97.0135 10.6257C95.3816 10.6257 94.7853 12.1119 94.486 13.4257L93.521 17.8417H91.1716L92.8391 10.3213Z" fill="#1F1A17"/>
    <path d="M108.608 11.0716C108.152 10.7821 107.539 10.6255 106.889 10.6255C105.013 10.6255 103.959 12.3336 103.959 13.9867C103.959 15.1293 104.346 16.2729 105.959 16.2729C106.539 16.2729 107.259 16.1179 107.872 15.8292L107.608 17.6383C106.889 17.9769 106.117 18.0464 105.347 18.0464C103.013 18.0464 101.505 16.5285 101.505 14.2588C101.505 11.1898 103.59 8.85437 106.835 8.85437C107.714 8.85437 108.554 9.00766 109.186 9.19434L108.608 11.0716Z" fill="#1F1A17"/>
    <path d="M114.944 12.588C114.979 12.3848 114.996 12.1968 114.996 11.993C114.996 11.0547 114.486 10.5229 113.503 10.5229C112.049 10.5229 111.416 11.3776 110.961 12.588H114.944ZM110.646 14.1568C110.646 15.7779 111.538 16.3765 113.154 16.3765C114.118 16.3765 115.049 16.1361 115.925 15.7446L115.627 17.5527C114.714 17.8254 113.716 18.0465 112.75 18.0465C110.154 18.0465 108.402 16.8173 108.402 14.2081C108.402 11.4788 110.575 8.85437 113.54 8.85437C115.766 8.85437 117.241 9.96453 117.241 12.1968C117.241 12.8617 117.152 13.5097 117.011 14.1568L110.646 14.1568Z" fill="#1F1A17"/>
  </g>
</svg>